<svg xmlns="http://www.w3.org/2000/svg" width="1038" height="244" viewBox="0 0 1038 244" role="img" aria-label="Startup State logo">
  <path fill="#00A24C" fill-rule="evenodd" d="M 2.00 4.00 L 3.00 11.00 L 34.00 64.00 L 39.00 67.00 L 96.00 67.00 L 98.00 64.00 L 93.00 56.00 L 94.00 54.00 L 249.00 54.00 L 252.00 51.00 L 276.00 9.00 L 276.00 3.00 L 273.00 2.00 L 272.00 0.00 L 6.00 0.00 Z"/>
  <path fill="#13E083" fill-rule="evenodd" d="M 44.00 78.00 L 45.00 84.00 L 72.00 129.00 L 153.00 129.00 L 154.00 131.00 L 149.00 140.00 L 150.00 142.00 L 200.00 142.00 L 202.00 141.00 L 209.00 131.00 L 211.00 126.00 L 216.00 119.00 L 218.00 114.00 L 237.00 82.00 L 237.00 78.00 L 233.00 75.00 L 48.00 75.00 Z M 0.00 5.00 L 0.00 7.00 L 1.00 7.00 L 1.00 5.00 Z"/>
  <path fill="#A4F0AF" fill-rule="evenodd" d="M 90.00 150.00 L 88.00 153.00 L 88.00 158.00 L 91.00 162.00 L 91.00 164.00 L 93.00 166.00 L 100.00 179.00 L 102.00 181.00 L 112.00 200.00 L 117.00 207.00 L 123.00 219.00 L 128.00 226.00 L 131.00 233.00 L 138.00 243.00 L 144.00 243.00 L 147.00 239.00 L 152.00 229.00 L 154.00 227.00 L 160.00 215.00 L 164.00 210.00 L 164.00 208.00 L 166.00 206.00 L 168.00 201.00 L 173.00 194.00 L 175.00 189.00 L 179.00 184.00 L 179.00 182.00 L 187.00 170.00 L 190.00 163.00 L 192.00 161.00 L 194.00 157.00 L 194.00 153.00 L 193.00 151.00 L 191.00 150.00 Z"/>
  <path fill="#414143" fill-rule="evenodd" d="M 646.00 155.00 L 646.00 241.00 L 698.00 241.00 L 698.00 230.00 L 659.00 230.00 L 658.00 229.00 L 658.00 203.00 L 659.00 202.00 L 698.00 202.00 L 698.00 191.00 L 659.00 191.00 L 658.00 190.00 L 658.00 166.00 L 659.00 165.00 L 698.00 165.00 L 698.00 155.00 Z M 560.00 155.00 L 560.00 165.00 L 580.00 165.00 L 581.00 166.00 L 581.00 241.00 L 593.00 241.00 L 593.00 166.00 L 594.00 165.00 L 615.00 165.00 L 615.00 155.00 Z M 500.00 155.00 L 498.00 159.00 L 498.00 161.00 L 496.00 164.00 L 495.00 169.00 L 493.00 172.00 L 493.00 174.00 L 491.00 177.00 L 491.00 179.00 L 489.00 182.00 L 488.00 187.00 L 484.00 195.00 L 483.00 200.00 L 477.00 213.00 L 476.00 218.00 L 472.00 226.00 L 471.00 231.00 L 467.00 239.00 L 467.00 241.00 L 480.00 241.00 L 487.00 222.00 L 522.00 222.00 L 524.00 225.00 L 524.00 227.00 L 526.00 230.00 L 527.00 235.00 L 530.00 241.00 L 543.00 241.00 L 543.00 238.00 L 539.00 230.00 L 538.00 225.00 L 534.00 217.00 L 533.00 212.00 L 529.00 204.00 L 528.00 199.00 L 526.00 196.00 L 525.00 191.00 L 521.00 183.00 L 520.00 178.00 L 516.00 170.00 L 516.00 168.00 L 511.00 157.00 L 511.00 155.00 Z M 504.00 176.00 L 507.00 178.00 L 507.00 180.00 L 510.00 186.00 L 512.00 194.00 L 514.00 197.00 L 516.00 205.00 L 518.00 208.00 L 518.00 211.00 L 517.00 212.00 L 492.00 212.00 L 491.00 211.00 L 493.00 204.00 L 495.00 201.00 L 497.00 193.00 L 499.00 190.00 L 500.00 185.00 L 502.00 182.00 L 502.00 180.00 Z M 395.00 155.00 L 395.00 165.00 L 416.00 165.00 L 417.00 166.00 L 417.00 241.00 L 429.00 241.00 L 429.00 166.00 L 430.00 165.00 L 450.00 165.00 L 450.00 155.00 Z M 335.00 153.00 L 334.00 154.00 L 326.00 155.00 L 317.00 161.00 L 313.00 168.00 L 313.00 171.00 L 312.00 172.00 L 312.00 181.00 L 315.00 188.00 L 321.00 194.00 L 328.00 198.00 L 341.00 202.00 L 349.00 206.00 L 355.00 213.00 L 355.00 221.00 L 353.00 225.00 L 347.00 230.00 L 341.00 231.00 L 340.00 232.00 L 335.00 232.00 L 334.00 231.00 L 327.00 230.00 L 323.00 228.00 L 315.00 221.00 L 307.00 229.00 L 307.00 230.00 L 314.00 236.00 L 325.00 241.00 L 328.00 241.00 L 329.00 242.00 L 345.00 242.00 L 346.00 241.00 L 349.00 241.00 L 352.00 239.00 L 354.00 239.00 L 360.00 235.00 L 365.00 229.00 L 367.00 224.00 L 367.00 221.00 L 368.00 220.00 L 368.00 211.00 L 367.00 210.00 L 367.00 207.00 L 365.00 203.00 L 356.00 195.00 L 345.00 190.00 L 337.00 188.00 L 329.00 184.00 L 324.00 178.00 L 324.00 173.00 L 330.00 166.00 L 335.00 164.00 L 343.00 164.00 L 344.00 165.00 L 347.00 165.00 L 352.00 167.00 L 358.00 171.00 L 365.00 162.00 L 361.00 159.00 L 352.00 155.00 L 342.00 154.00 L 341.00 153.00 Z M 957.00 2.00 L 957.00 117.00 L 983.00 117.00 L 983.00 76.00 L 984.00 75.00 L 1000.00 75.00 L 1001.00 74.00 L 1011.00 73.00 L 1021.00 69.00 L 1028.00 64.00 L 1035.00 55.00 L 1035.00 53.00 L 1037.00 50.00 L 1037.00 27.00 L 1033.00 19.00 L 1025.00 11.00 L 1016.00 6.00 L 1014.00 6.00 L 1010.00 4.00 L 1006.00 4.00 L 1005.00 3.00 L 997.00 3.00 L 996.00 2.00 Z M 983.00 25.00 L 984.00 24.00 L 995.00 24.00 L 996.00 25.00 L 1000.00 25.00 L 1004.00 27.00 L 1007.00 30.00 L 1010.00 36.00 L 1010.00 42.00 L 1009.00 43.00 L 1009.00 45.00 L 1004.00 50.00 L 1000.00 52.00 L 996.00 52.00 L 995.00 53.00 L 984.00 53.00 L 983.00 52.00 Z M 830.00 2.00 L 830.00 70.00 L 831.00 71.00 L 831.00 80.00 L 834.00 92.00 L 841.00 105.00 L 850.00 113.00 L 859.00 117.00 L 869.00 119.00 L 891.00 118.00 L 900.00 115.00 L 908.00 110.00 L 917.00 99.00 L 923.00 80.00 L 923.00 73.00 L 924.00 72.00 L 924.00 2.00 L 897.00 2.00 L 897.00 75.00 L 893.00 87.00 L 886.00 94.00 L 881.00 96.00 L 874.00 96.00 L 867.00 93.00 L 860.00 85.00 L 857.00 74.00 L 857.00 2.00 Z M 729.00 2.00 L 729.00 24.00 L 754.00 24.00 L 755.00 25.00 L 755.00 117.00 L 782.00 117.00 L 782.00 25.00 L 783.00 24.00 L 808.00 24.00 L 808.00 2.00 Z M 625.00 2.00 L 625.00 117.00 L 651.00 117.00 L 651.00 75.00 L 652.00 74.00 L 655.00 76.00 L 678.00 111.00 L 683.00 117.00 L 716.00 117.00 L 683.00 71.00 L 684.00 68.00 L 692.00 64.00 L 700.00 56.00 L 704.00 48.00 L 704.00 45.00 L 705.00 44.00 L 705.00 31.00 L 703.00 24.00 L 698.00 16.00 L 691.00 10.00 L 681.00 5.00 L 678.00 5.00 L 673.00 3.00 L 665.00 3.00 L 664.00 2.00 Z M 651.00 25.00 L 652.00 24.00 L 663.00 24.00 L 671.00 27.00 L 675.00 31.00 L 677.00 35.00 L 677.00 40.00 L 676.00 41.00 L 676.00 43.00 L 669.00 49.00 L 666.00 49.00 L 665.00 50.00 L 652.00 50.00 L 651.00 49.00 Z M 537.00 2.00 L 533.00 11.00 L 533.00 13.00 L 531.00 16.00 L 531.00 18.00 L 526.00 28.00 L 526.00 30.00 L 523.00 35.00 L 521.00 42.00 L 518.00 47.00 L 516.00 54.00 L 513.00 59.00 L 511.00 66.00 L 508.00 71.00 L 506.00 78.00 L 503.00 83.00 L 501.00 90.00 L 498.00 95.00 L 494.00 107.00 L 491.00 112.00 L 490.00 117.00 L 519.00 117.00 L 525.00 99.00 L 527.00 97.00 L 563.00 97.00 L 565.00 100.00 L 570.00 117.00 L 601.00 117.00 L 596.00 102.00 L 594.00 99.00 L 593.00 94.00 L 591.00 91.00 L 590.00 86.00 L 588.00 83.00 L 587.00 78.00 L 585.00 75.00 L 584.00 70.00 L 582.00 67.00 L 577.00 51.00 L 575.00 48.00 L 574.00 43.00 L 572.00 40.00 L 571.00 35.00 L 569.00 32.00 L 568.00 27.00 L 566.00 24.00 L 565.00 19.00 L 563.00 16.00 L 562.00 11.00 L 560.00 8.00 L 559.00 3.00 L 558.00 2.00 Z M 545.00 45.00 L 547.00 46.00 L 547.00 48.00 L 548.00 49.00 L 548.00 51.00 L 556.00 73.00 L 556.00 75.00 L 555.00 76.00 L 536.00 76.00 L 535.00 75.00 L 535.00 72.00 Z M 404.00 2.00 L 404.00 24.00 L 430.00 24.00 L 431.00 25.00 L 431.00 117.00 L 457.00 117.00 L 457.00 25.00 L 458.00 24.00 L 484.00 24.00 L 484.00 2.00 Z M 336.00 0.00 L 335.00 2.00 L 331.00 2.00 L 320.00 7.00 L 312.00 14.00 L 307.00 25.00 L 307.00 31.00 L 306.00 32.00 L 307.00 42.00 L 311.00 51.00 L 320.00 60.00 L 327.00 64.00 L 352.00 74.00 L 358.00 81.00 L 358.00 88.00 L 353.00 94.00 L 349.00 96.00 L 340.00 97.00 L 328.00 93.00 L 314.00 82.00 L 297.00 99.00 L 307.00 108.00 L 322.00 116.00 L 335.00 119.00 L 349.00 119.00 L 365.00 115.00 L 375.00 109.00 L 381.00 103.00 L 386.00 92.00 L 387.00 86.00 L 386.00 74.00 L 383.00 66.00 L 374.00 56.00 L 364.00 50.00 L 337.00 40.00 L 333.00 35.00 L 333.00 30.00 L 337.00 25.00 L 341.00 23.00 L 350.00 23.00 L 354.00 24.00 L 368.00 33.00 L 370.00 33.00 L 383.00 17.00 L 384.00 14.00 L 369.00 5.00 L 360.00 2.00 L 356.00 2.00 L 355.00 0.00 Z"/>
</svg>